# xmcd
#
# Track frame offsets:
#   150
#   34713
#   64707
#   92007
#   122528
#   154851
#   207607
#   235465
#   268911
#
# Disc length: 4126 seconds
#
# Revision: 0
# Processed by: cddbd v1.5.2PL0 Copyright (c) Steve Scherf et al.
# Submitted via: GXTranscoder 2.0.1939
#
DISCID=7e101c09
DTITLE=John Abercombie - Best
DYEAR=1900
DGENRE=Blues
TTITLE0=Night
TTITLE1=Solar a
TTITLE2=Solar b
TTITLE3=Homecoming
TTITLE4=In the Moment
TTITLE5=Tactics a
TTITLE6=Tactics b
TTITLE7=Open Land
TTITLE8=Current Events
EXTD=
EXTT0=
EXTT1=
EXTT2=
EXTT3=
EXTT4=
EXTT5=
EXTT6=
EXTT7=
EXTT8=
PLAYORDER=
